<svg height="416pt" viewBox="0 -8 416 416" width="416pt" xmlns="http://www.w3.org/2000/svg"><path d="m8 104 56-96h296l40 48-40 48zm0 0" fill="#0093ba"/><g fill="#06687f"><path d="m88 0h272c2.371094 0 4.625 1.050781 6.144531 2.871094l40 48c2.480469 2.96875 2.480469 7.289062 0 10.257812l-40 48c-1.519531 1.820313-3.773437 2.871094-6.144531 2.871094h-328v-16h324.257812l33.34375-40-33.34375-40h-268.257812zm0 0"/><path d="m0 96h16v16h-16zm0 0"/><path d="m56 0h16v16h-16zm0 0"/><path d="m32 32h88v16h-88zm0 0"/><path d="m16 64h88v16h-88zm0 0"/></g><path d="m408 296-56 96h-296l-40-48 40-48zm0 0" fill="#0093ba"/><path d="m328 400h-272c-2.371094 0-4.625-1.050781-6.144531-2.871094l-40-48c-2.480469-2.96875-2.480469-7.289062 0-10.257812l40-48c1.519531-1.820313 3.773437-2.871094 6.144531-2.871094h328v16h-324.257812l-33.34375 40 33.328124 40h268.273438zm0 0" fill="#06687f"/><path d="m328 200c0 66.273438-53.726562 120-120 120s-120-53.726562-120-120 53.726562-120 120-120 120 53.726562 120 120zm0 0" fill="#f0a91e"/><path d="m296 200c0 48.601562-39.398438 88-88 88s-88-39.398438-88-88 39.398438-88 88-88 88 39.398438 88 88zm0 0" fill="#ffd91c"/><path d="m400 288h16v16h-16zm0 0" fill="#06687f"/><path d="m344 384h16v16h-16zm0 0" fill="#06687f"/><path d="m296 352h88v16h-88zm0 0" fill="#06687f"/><path d="m312 320h88v16h-88zm0 0" fill="#06687f"/><path d="m152 192h16v16h-16zm0 0" fill="#f0a91e"/><path d="m248 192h16v16h-16zm0 0" fill="#f0a91e"/><path d="m216 161.160156v-9.160156h-16v9.160156c-8.875 2.761719-15.179688 10.640625-15.921875 19.90625s4.222656 18.050782 12.546875 22.191406l15.589844 7.796876c2.835937 1.417968 4.324218 4.59375 3.597656 7.679687-.726562 3.082031-3.476562 5.261719-6.644531 5.265625h-2.335938c-3.769531-.003906-6.828125-3.0625-6.832031-6.832031v-1.167969h-16v1.167969c.035156 9.941406 6.511719 18.710937 16 21.671875v9.160156h16v-9.160156c8.875-2.761719 15.179688-10.640625 15.921875-19.90625s-4.222656-18.050782-12.546875-22.191406l-15.589844-7.796876c-2.835937-1.417968-4.324218-4.59375-3.597656-7.679687.726562-3.082031 3.476562-5.261719 6.644531-5.265625h2.335938c3.769531.003906 6.828125 3.0625 6.832031 6.832031v1.167969h16v-1.167969c-.035156-9.941406-6.511719-18.710937-16-21.671875zm0 0" fill="#f0a91e"/></svg>